<svg width="25" height="25" viewBox="0 0 25 25" fill="none" xmlns="http://www.w3.org/2000/svg">
<g clip-path="url(#clip0_3_74)">
<path d="M12.7368 24.6171C19.3642 24.6171 24.7368 19.2445 24.7368 12.6171C24.7368 5.98966 19.3642 0.617081 12.7368 0.617081C6.1094 0.617081 0.736816 5.98966 0.736816 12.6171C0.736816 19.2445 6.1094 24.6171 12.7368 24.6171Z" fill="#3B5998"/>
<path d="M15.7536 13.0868H13.6123V20.9314H10.3681V13.0868H8.8252V10.3299H10.3681V8.54592C10.3681 7.27015 10.9741 5.27243 13.6412 5.27243L16.0443 5.28248V7.95852H14.3007C14.0147 7.95852 13.6125 8.10141 13.6125 8.70999V10.3325H16.037L15.7536 13.0868Z" fill="white"/>
</g>
<defs>
<clipPath id="clip0_3_74">
<rect width="24" height="24" fill="white" transform="translate(0.736816 0.617081)"/>
</clipPath>
</defs>
</svg>
