<svg width="106" height="81" viewBox="0 0 106 81" fill="none" xmlns="http://www.w3.org/2000/svg">
<path d="M31.4979 3.71247C33.4505 1.75985 36.6164 1.75985 38.569 3.71247L66.5313 31.6748C68.484 33.6275 68.484 36.7933 66.5313 38.7459L38.569 66.7083C36.6163 68.6609 33.4505 68.6609 31.4979 66.7083L3.53553 38.7459C1.58291 36.7933 1.58291 33.6275 3.53553 31.6748L31.4979 3.71247Z" fill="#FF543E"/>
<path d="M66.5311 14.2031C68.4837 12.2505 71.6496 12.2505 73.6022 14.2031L101.565 42.1655C103.517 44.1181 103.517 47.284 101.565 49.2366L73.6022 77.199C71.6496 79.1516 68.4837 79.1516 66.5311 77.1989L38.5687 49.2366C36.6161 47.284 36.6161 44.1181 38.5687 42.1655L66.5311 14.2031Z" fill="#1FE2D9"/>
</svg>
