<svg width="26" height="25" viewBox="0 0 26 25" fill="none" xmlns="http://www.w3.org/2000/svg">
<g clip-path="url(#clip0_3_16)">
<path d="M2.31574 2.25011C0.330479 4.20911 0.736795 6.29011 0.736795 12.6121C0.736795 17.8621 -0.227416 23.1251 4.8189 24.3641C6.39469 24.7491 20.3568 24.7491 21.9305 24.3621C24.0315 23.8471 25.741 22.2281 25.9747 19.4051C26.0073 19.0111 26.0073 6.22011 25.9736 5.81811C25.7252 2.81111 23.7768 1.07811 21.2094 0.727112C20.621 0.646112 20.5031 0.622112 17.4842 0.617112C6.77574 0.622112 4.42837 0.169112 2.31574 2.25011Z" fill="url(#paint0_linear_3_16)"/>
<path d="M13.3662 3.75605C9.54414 3.75605 5.91467 3.43305 4.52835 6.81305C3.95572 8.20905 4.03888 10.0221 4.03888 12.6181C4.03888 14.8961 3.96204 17.0371 4.52835 18.4221C5.91151 21.8041 9.57046 21.4801 13.3641 21.4801C17.0241 21.4801 20.7978 21.8421 22.201 18.4221C22.7747 17.0121 22.6905 15.2261 22.6905 12.6181C22.6905 9.15605 22.8915 6.92105 21.1241 5.24305C19.3347 3.54305 16.9147 3.75605 13.362 3.75605H13.3662ZM12.5305 5.35305C20.5031 5.34105 21.5178 4.49905 20.9578 16.1961C20.7589 20.3331 17.4431 19.8791 13.3673 19.8791C5.93572 19.8791 5.72204 19.6771 5.72204 12.6141C5.72204 5.46905 6.31151 5.35705 12.5305 5.35105V5.35305ZM18.3452 6.82405C17.7273 6.82405 17.2262 7.30005 17.2262 7.88705C17.2262 8.47405 17.7273 8.95005 18.3452 8.95005C18.9631 8.95005 19.4641 8.47405 19.4641 7.88705C19.4641 7.30005 18.9631 6.82405 18.3452 6.82405ZM13.3662 8.06705C10.721 8.06705 8.57678 10.1051 8.57678 12.6181C8.57678 15.1311 10.721 17.1681 13.3662 17.1681C16.0115 17.1681 18.1547 15.1311 18.1547 12.6181C18.1547 10.1051 16.0115 8.06705 13.3662 8.06705ZM13.3662 9.66405C17.4768 9.66405 17.482 15.5721 13.3662 15.5721C9.25677 15.5721 9.25046 9.66405 13.3662 9.66405Z" fill="white"/>
</g>
<defs>
<linearGradient id="paint0_linear_3_16" x1="2.36418" y1="23.0842" x2="24.8053" y2="2.63942" gradientUnits="userSpaceOnUse">
<stop stop-color="#FFDD55"/>
<stop offset="0.5" stop-color="#FF543E"/>
<stop offset="1" stop-color="#C837AB"/>
</linearGradient>
<clipPath id="clip0_3_16">
<rect width="25.2632" height="24" fill="white" transform="translate(0.736816 0.617081)"/>
</clipPath>
</defs>
</svg>
