<svg width="11" height="11" viewBox="0 0 11 11" fill="none" xmlns="http://www.w3.org/2000/svg">
<g clip-path="url(#clip0_4_142)">
<path d="M7.34039 5.11419L10.7116 7.24544V2.89294L7.34039 5.11419Z" fill="#828282"/>
<path d="M0.711609 2.89294V7.24544L4.08286 5.11419L0.711609 2.89294Z" fill="#828282"/>
<path d="M10.0866 1.62544H1.3366C1.02472 1.62544 0.777222 1.85794 0.730347 2.15732L5.7116 5.43919L10.6928 2.15732C10.646 1.85794 10.3985 1.62544 10.0866 1.62544Z" fill="#828282"/>
<path d="M6.76788 5.4917L5.8835 6.0742C5.831 6.10857 5.77163 6.12545 5.71163 6.12545C5.65163 6.12545 5.59225 6.10857 5.53975 6.0742L4.65538 5.49107L0.731628 7.97295C0.779753 8.26982 1.026 8.50045 1.33663 8.50045H10.0866C10.3973 8.50045 10.6435 8.26982 10.6916 7.97295L6.76788 5.4917Z" fill="#828282"/>
</g>
<defs>
<clipPath id="clip0_4_142">
<rect width="10" height="10" fill="white" transform="translate(0.711609 0.0629425)"/>
</clipPath>
</defs>
</svg>
