<svg width="11" height="11" viewBox="0 0 11 11" fill="none" xmlns="http://www.w3.org/2000/svg">
<g clip-path="url(#clip0_4_115)">
<path d="M9.93943 7.70261L8.5439 6.30708C8.0455 5.80867 7.19821 6.00806 6.99885 6.65596C6.84933 7.10454 6.35093 7.35374 5.90237 7.25404C4.90556 7.00484 3.55987 5.70899 3.31067 4.66235C3.16115 4.21376 3.46019 3.71536 3.90875 3.56586C4.55668 3.3665 4.75604 2.51921 4.25763 2.02081L2.8621 0.625279C2.46338 0.276396 1.8653 0.276396 1.51641 0.625279L0.569448 1.57225C-0.377519 2.56905 0.669129 5.21059 3.01163 7.55309C5.35412 9.89558 7.99566 10.9921 8.99247 9.99526L9.93943 9.0483C10.2883 8.64957 10.2883 8.05149 9.93943 7.70261Z" fill="#828282"/>
</g>
<defs>
<clipPath id="clip0_4_115">
<rect width="10" height="10" fill="white" transform="translate(0.211609 0.363617)"/>
</clipPath>
</defs>
</svg>
