<svg width="16" height="16" viewBox="0 0 16 16" fill="none" xmlns="http://www.w3.org/2000/svg">
<g clip-path="url(#clip0_6_496)">
<path d="M7.99754 0.887695C4.97371 0.887695 2.51367 3.39194 2.51367 6.47008C2.51367 8.19186 3.38449 10.2817 5.10203 12.6815C6.35893 14.4378 7.59749 15.6904 7.64961 15.7429C7.74541 15.8393 7.87144 15.8877 7.99762 15.8877C8.12014 15.8877 8.24275 15.8421 8.33779 15.7505C8.39003 15.7002 9.63172 14.4983 10.891 12.7663C12.6099 10.402 13.4815 8.28368 13.4815 6.47005C13.4814 3.39194 11.0213 0.887695 7.99754 0.887695ZM7.99754 8.88007C6.51921 8.88007 5.31654 7.67738 5.31654 6.19908C5.31654 4.72079 6.51924 3.51809 7.99754 3.51809C9.47583 3.51809 10.6785 4.72079 10.6785 6.19908C10.6785 7.67738 9.4758 8.88007 7.99754 8.88007Z" fill="#828282"/>
</g>
<defs>
<clipPath id="clip0_6_496">
<rect width="15" height="15" fill="white" transform="translate(0.497528 0.887695)"/>
</clipPath>
</defs>
</svg>
