<svg width="26" height="25" viewBox="0 0 26 25" fill="none" xmlns="http://www.w3.org/2000/svg">
<g clip-path="url(#clip0_3_93)">
<path d="M13.3684 24.6171C20.3446 24.6171 26 19.2445 26 12.6171C26 5.98966 20.3446 0.617081 13.3684 0.617081C6.39217 0.617081 0.736816 5.98966 0.736816 12.6171C0.736816 19.2445 6.39217 24.6171 13.3684 24.6171Z" fill="#4D76A1"/>
<path fill-rule="evenodd" clip-rule="evenodd" d="M12.8912 17.8801H13.8827C13.8827 17.8801 14.1821 17.8489 14.335 17.6923C14.4758 17.5486 14.4713 17.2786 14.4713 17.2786C14.4713 17.2786 14.4519 16.0148 15.0693 15.8287C15.6779 15.6454 16.4595 17.0502 17.2879 17.5903C17.9143 17.9991 18.3903 17.9094 18.3903 17.9094L20.6053 17.8801C20.6053 17.8801 21.7641 17.8123 21.2147 16.9468C21.1696 16.876 20.8947 16.3066 19.5678 15.1365C18.1789 13.9119 18.3649 14.1099 20.0379 11.9916C21.0568 10.7015 21.4641 9.91386 21.3369 9.57652C21.2156 9.25523 20.4662 9.34015 20.4662 9.34015L17.9722 9.35491C17.9722 9.35491 17.7873 9.33095 17.6502 9.40881C17.5162 9.48518 17.43 9.66316 17.43 9.66316C17.43 9.66316 17.0353 10.6615 16.5088 11.5105C15.3983 13.302 14.9543 13.3965 14.7728 13.2853C14.3506 13.0261 14.456 12.2438 14.456 11.688C14.456 9.95194 14.7331 9.22806 13.9162 9.04067C13.6451 8.97843 13.4456 8.93735 12.7523 8.93072C11.8624 8.92195 11.1093 8.93329 10.6828 9.1318C10.3991 9.26378 10.1802 9.55791 10.3135 9.57481C10.4783 9.59577 10.8517 9.67043 11.0496 9.92648C11.3052 10.2568 11.2961 10.9986 11.2961 10.9986C11.2961 10.9986 11.443 13.0423 10.9532 13.2962C10.617 13.4703 10.1559 13.1148 9.16581 11.4895C8.6585 10.657 8.27549 9.73674 8.27549 9.73674C8.27549 9.73674 8.20163 9.56476 8.06991 9.47277C7.91004 9.36133 7.68667 9.32582 7.68667 9.32582L5.31676 9.34058C5.31676 9.34058 4.96099 9.34999 4.83039 9.49695C4.7142 9.62765 4.82116 9.89803 4.82116 9.89803C4.82116 9.89803 6.67656 14.0218 8.77739 16.1C10.7037 18.0053 12.8912 17.8801 12.8912 17.8801Z" fill="white"/>
</g>
<defs>
<clipPath id="clip0_3_93">
<rect width="25.2632" height="24" fill="white" transform="translate(0.736816 0.617081)"/>
</clipPath>
</defs>
</svg>
