<svg width="17" height="17" viewBox="0 0 17 17" fill="none" xmlns="http://www.w3.org/2000/svg">
<g clip-path="url(#clip0_4_173)">
<path d="M8.19469 0.367786C3.77902 0.368723 0.200168 3.9491 0.201105 8.36477C0.201417 9.89377 0.640189 11.3906 1.46533 12.6778L0.221405 15.9053C0.155163 16.0769 0.240612 16.2698 0.412261 16.336C0.450644 16.3508 0.491402 16.3584 0.532534 16.3583C0.570698 16.3585 0.608582 16.352 0.644467 16.339L3.97584 15.1497C7.724 17.4841 12.6549 16.338 14.9893 12.5898C17.3236 8.84164 16.1776 3.91078 12.4294 1.57641C11.1588 0.785071 9.69159 0.366319 8.19469 0.367786Z" fill="#4CAF50"/>
<path d="M12.0065 9.7296C12.0065 9.7296 11.1903 9.32984 10.6793 9.06334C10.1009 8.76552 9.42135 9.32319 9.10154 9.64034C8.6038 9.44914 8.1492 9.16056 7.76433 8.7915C7.39521 8.4067 7.10663 7.95209 6.91549 7.45429C7.23265 7.13382 7.78897 6.45488 7.49249 5.87657C7.2293 5.36487 6.82623 4.54935 6.82623 4.5487C6.76967 4.43645 6.65477 4.36559 6.52906 4.36546H5.8628C4.8925 4.53305 4.18701 5.37968 4.19713 6.36428C4.19713 7.41032 5.44904 9.41982 6.29323 10.2646C7.13742 11.1094 9.14689 12.3607 10.1936 12.3607C11.1782 12.3709 12.0248 11.6653 12.1924 10.6951V10.0288C12.1925 9.90175 12.1204 9.78572 12.0065 9.7296Z" fill="#FAFAFA"/>
</g>
<defs>
<clipPath id="clip0_4_173">
<rect width="16" height="16" fill="white" transform="translate(0.198975 0.363617)"/>
</clipPath>
</defs>
</svg>
